<svg xmlns="http://www.w3.org/2000/svg" viewBox="0 0 1600 1000" fill="none">
  <rect width="1600" height="1000" fill="#060914" />
  <circle cx="1360" cy="180" r="170" fill="#67e8f9" fill-opacity=".12" />
  <rect x="110" y="120" width="1380" height="760" rx="40" fill="#0a0f1d" stroke="#1e293b" />
  <rect x="170" y="170" width="1260" height="660" rx="28" fill="#f2f4f8" />
  <rect x="230" y="230" width="420" height="430" rx="26" fill="#111827" />
  <rect x="690" y="230" width="460" height="190" rx="26" fill="#ffffff" />
  <rect x="1180" y="230" width="190" height="190" rx="26" fill="#0f172a" />
  <rect x="690" y="460" width="680" height="200" rx="26" fill="#ffffff" />
  <rect x="230" y="700" width="1140" height="70" rx="18" fill="#111827" />
  <rect x="268" y="266" width="180" height="18" rx="9" fill="#e2e8f0" />
  <rect x="268" y="302" width="240" height="12" rx="6" fill="#94a3b8" />
  <rect x="738" y="278" width="200" height="18" rx="9" fill="#0f172a" />
  <rect x="738" y="314" width="310" height="12" rx="6" fill="#64748b" />
  <rect x="738" y="510" width="220" height="18" rx="9" fill="#0f172a" />
  <rect x="738" y="548" width="430" height="12" rx="6" fill="#94a3b8" />
  <rect x="738" y="576" width="390" height="12" rx="6" fill="#94a3b8" fill-opacity=".72" />
</svg>
