<svg xmlns="http://www.w3.org/2000/svg" viewBox="0 0 1600 1000" fill="none">
  <rect width="1600" height="1000" fill="#07111d" />
  <circle cx="1260" cy="150" r="170" fill="#38bdf8" fill-opacity=".12" />
  <rect x="110" y="110" width="1380" height="780" rx="40" fill="#08111f" stroke="#1e293b" />
  <rect x="160" y="160" width="1280" height="680" rx="30" fill="#050b14" stroke="#334155" />
  <circle cx="800" cy="490" r="168" fill="#0f172a" stroke="#67e8f9" stroke-opacity=".24" />
  <circle cx="800" cy="490" r="112" fill="#0b1325" stroke="#22d3ee" stroke-opacity=".3" />
  <path d="M800 180 V800 M470 490 H1130" stroke="#67e8f9" stroke-opacity=".24" />
  <path d="M640 320 L960 660" stroke="#38bdf8" stroke-opacity=".2" />
  <path d="M960 320 L640 660" stroke="#38bdf8" stroke-opacity=".2" />
  <rect x="220" y="206" width="220" height="18" rx="9" fill="#e2e8f0" />
  <rect x="220" y="242" width="310" height="12" rx="6" fill="#94a3b8" />
  <rect x="1140" y="220" width="210" height="130" rx="24" fill="#0b1325" stroke="#334155" />
  <rect x="1180" y="260" width="92" height="12" rx="6" fill="#67e8f9" />
  <rect x="1180" y="288" width="72" height="10" rx="5" fill="#67e8f9" fill-opacity=".42" />
  <rect x="1130" y="640" width="240" height="120" rx="24" fill="#0b1325" stroke="#334155" />
  <rect x="1172" y="680" width="110" height="12" rx="6" fill="#cbd5e1" />
  <rect x="1172" y="708" width="160" height="10" rx="5" fill="#94a3b8" fill-opacity=".7" />
</svg>
