<svg xmlns="http://www.w3.org/2000/svg" viewBox="0 0 1600 1000" fill="none">
  <defs>
    <linearGradient id="bg2" x1="0" y1="0" x2="1" y2="1">
      <stop offset="0%" stop-color="#040814" />
      <stop offset="100%" stop-color="#101b35" />
    </linearGradient>
  </defs>
  <rect width="1600" height="1000" fill="url(#bg2)" />
  <circle cx="240" cy="180" r="160" fill="#2563eb" fill-opacity=".14" />
  <circle cx="1380" cy="760" r="220" fill="#67e8f9" fill-opacity=".12" />
  <g transform="translate(140 120)">
    <rect width="1320" height="760" rx="40" fill="#08111f" stroke="#1e293b" />
    <rect x="46" y="44" width="540" height="290" rx="28" fill="#0f172a" stroke="#334155" />
    <rect x="624" y="44" width="650" height="120" rx="28" fill="#0f172a" stroke="#334155" />
    <rect x="624" y="204" width="650" height="130" rx="28" fill="#0f172a" stroke="#334155" />
    <rect x="46" y="374" width="380" height="340" rx="28" fill="#0f172a" stroke="#334155" />
    <rect x="462" y="374" width="812" height="340" rx="28" fill="#0f172a" stroke="#334155" />
    <rect x="92" y="92" width="220" height="20" rx="10" fill="#e2e8f0" />
    <rect x="92" y="128" width="300" height="14" rx="7" fill="#94a3b8" />
    <rect x="92" y="164" width="268" height="14" rx="7" fill="#94a3b8" fill-opacity=".72" />
    <g transform="translate(660 74)">
      <rect width="190" height="60" rx="20" fill="#0ea5e9" fill-opacity=".18" />
      <rect x="22" y="20" width="92" height="12" rx="6" fill="#67e8f9" />
      <rect x="22" y="40" width="60" height="10" rx="5" fill="#67e8f9" fill-opacity=".45" />
    </g>
    <g transform="translate(882 74)">
      <rect width="190" height="60" rx="20" fill="#22c55e" fill-opacity=".14" />
      <rect x="22" y="20" width="92" height="12" rx="6" fill="#86efac" />
      <rect x="22" y="40" width="72" height="10" rx="5" fill="#86efac" fill-opacity=".42" />
    </g>
    <g transform="translate(1104 74)">
      <rect width="150" height="60" rx="20" fill="#6366f1" fill-opacity=".14" />
      <rect x="20" y="20" width="70" height="12" rx="6" fill="#c4b5fd" />
      <rect x="20" y="40" width="48" height="10" rx="5" fill="#c4b5fd" fill-opacity=".42" />
    </g>
    <path d="M116 286 C180 210 254 320 336 242 S478 274 540 188" stroke="#67e8f9" stroke-width="8" stroke-linecap="round" />
    <path d="M116 306 C190 248 250 352 334 286 S476 316 540 248" stroke="#3b82f6" stroke-opacity=".45" stroke-width="5" stroke-linecap="round" />
    <g transform="translate(500 420)">
      <rect width="734" height="250" rx="24" fill="#07101d" />
      <rect x="36" y="36" width="240" height="20" rx="10" fill="#e2e8f0" />
      <rect x="36" y="78" width="300" height="14" rx="7" fill="#94a3b8" />
      <rect x="36" y="108" width="260" height="14" rx="7" fill="#94a3b8" fill-opacity=".7" />
      <rect x="36" y="154" width="310" height="54" rx="20" fill="#0ea5e9" fill-opacity=".16" stroke="#22d3ee" stroke-opacity=".28" />
      <rect x="396" y="36" width="300" height="170" rx="24" fill="#0b1325" stroke="#334155" />
      <rect x="438" y="70" width="110" height="110" rx="22" fill="#67e8f9" fill-opacity=".16" />
      <rect x="570" y="82" width="82" height="14" rx="7" fill="#e2e8f0" />
      <rect x="570" y="114" width="92" height="12" rx="6" fill="#94a3b8" />
      <rect x="570" y="142" width="70" height="12" rx="6" fill="#94a3b8" fill-opacity=".7" />
    </g>
  </g>
</svg>
