<svg xmlns="http://www.w3.org/2000/svg" viewBox="0 0 1600 1000" fill="none">
  <defs>
    <linearGradient id="bg" x1="0" y1="0" x2="1" y2="1">
      <stop offset="0%" stop-color="#050816" />
      <stop offset="100%" stop-color="#142445" />
    </linearGradient>
    <linearGradient id="panel" x1="0" y1="0" x2="1" y2="1">
      <stop offset="0%" stop-color="#0f172a" />
      <stop offset="100%" stop-color="#081120" />
    </linearGradient>
    <linearGradient id="accent" x1="0" y1="0" x2="1" y2="0">
      <stop offset="0%" stop-color="#67e8f9" />
      <stop offset="100%" stop-color="#3b82f6" />
    </linearGradient>
  </defs>
  <rect width="1600" height="1000" fill="url(#bg)" />
  <circle cx="1260" cy="160" r="220" fill="#67e8f9" fill-opacity=".14" />
  <circle cx="240" cy="840" r="200" fill="#1d4ed8" fill-opacity=".12" />
  <rect x="110" y="100" width="1380" height="800" rx="38" fill="url(#panel)" stroke="#ffffff" stroke-opacity=".12" />
  <rect x="150" y="140" width="270" height="720" rx="26" fill="#08111f" stroke="#1e293b" />
  <rect x="460" y="140" width="990" height="90" rx="24" fill="#0b1325" stroke="#1e293b" />
  <rect x="460" y="270" width="640" height="330" rx="32" fill="#0b1325" stroke="#334155" />
  <rect x="1130" y="270" width="320" height="150" rx="28" fill="#0b1325" stroke="#334155" />
  <rect x="1130" y="450" width="320" height="150" rx="28" fill="#0b1325" stroke="#334155" />
  <rect x="460" y="640" width="990" height="180" rx="28" fill="#0b1325" stroke="#334155" />
  <g fill="#94a3b8">
    <rect x="190" y="200" width="150" height="16" rx="8" />
    <rect x="190" y="248" width="110" height="12" rx="6" />
    <rect x="190" y="328" width="190" height="12" rx="6" />
    <rect x="190" y="372" width="170" height="12" rx="6" />
    <rect x="190" y="416" width="140" height="12" rx="6" />
  </g>
  <path d="M520 520 C620 360 730 620 860 410 S1070 470 1140 330" stroke="url(#accent)" stroke-width="10" stroke-linecap="round" />
  <path d="M520 554 C640 430 730 690 870 478 S1060 560 1130 420" stroke="#38bdf8" stroke-opacity=".35" stroke-width="6" stroke-linecap="round" />
  <g>
    <rect x="520" y="306" width="160" height="24" rx="12" fill="#e2e8f0" fill-opacity=".9" />
    <rect x="520" y="350" width="250" height="14" rx="7" fill="#94a3b8" />
    <rect x="520" y="378" width="230" height="14" rx="7" fill="#94a3b8" fill-opacity=".72" />
  </g>
  <g fill="#0ea5e9">
    <rect x="1180" y="310" width="78" height="78" rx="20" fill-opacity=".22" />
    <rect x="1290" y="310" width="118" height="18" rx="9" fill-opacity=".82" />
    <rect x="1290" y="344" width="88" height="12" rx="6" fill-opacity=".35" />
    <rect x="1290" y="378" width="100" height="12" rx="6" fill-opacity=".25" />
  </g>
  <g fill="#22d3ee">
    <rect x="1180" y="490" width="180" height="18" rx="9" fill-opacity=".78" />
    <rect x="1180" y="532" width="236" height="16" rx="8" fill-opacity=".22" />
    <rect x="1180" y="564" width="210" height="16" rx="8" fill-opacity=".16" />
  </g>
  <g fill="#e2e8f0">
    <rect x="520" y="690" width="220" height="18" rx="9" fill-opacity=".86" />
    <rect x="520" y="734" width="360" height="14" rx="7" fill-opacity=".35" />
    <rect x="520" y="764" width="300" height="14" rx="7" fill-opacity=".22" />
  </g>
</svg>
