<svg xmlns="http://www.w3.org/2000/svg" viewBox="0 0 1600 1000" fill="none">
  <rect width="1600" height="1000" fill="#0f0714" />
  <g transform="translate(110 110)">
    <rect width="1380" height="780" rx="40" fill="#120b1c" stroke="#312043" />
    <rect x="40" y="40" width="410" height="700" rx="28" fill="#171022" stroke="#3b2b4b" />
    <rect x="490" y="40" width="850" height="210" rx="28" fill="#171022" stroke="#3b2b4b" />
    <rect x="490" y="290" width="850" height="450" rx="28" fill="#171022" stroke="#3b2b4b" />
    <rect x="86" y="88" width="160" height="16" rx="8" fill="#f8fafc" />
    <rect x="86" y="124" width="230" height="12" rx="6" fill="#cbd5e1" fill-opacity=".72" />
    <g transform="translate(86 188)">
      <rect width="318" height="160" rx="22" fill="#0c1019" />
      <path d="M20 110 C78 40 126 150 182 96 S266 76 298 38" stroke="#67e8f9" stroke-width="8" stroke-linecap="round" />
      <path d="M20 132 C82 72 128 182 188 130 S270 112 298 72" stroke="#c084fc" stroke-width="5" stroke-linecap="round" />
    </g>
    <g transform="translate(86 382)">
      <rect width="318" height="160" rx="22" fill="#0c1019" />
      <path d="M24 108 C88 72 128 152 190 104 S276 92 296 48" stroke="#67e8f9" stroke-width="8" stroke-linecap="round" />
    </g>
    <g transform="translate(86 576)">
      <rect width="318" height="116" rx="22" fill="#0c1019" />
      <rect x="24" y="26" width="84" height="10" rx="5" fill="#f8fafc" />
      <rect x="24" y="52" width="130" height="10" rx="5" fill="#cbd5e1" fill-opacity=".68" />
    </g>
    <g transform="translate(538 96)">
      <rect width="190" height="100" rx="24" fill="#0c1019" />
      <rect x="28" y="28" width="84" height="14" rx="7" fill="#f8fafc" />
      <rect x="28" y="56" width="54" height="10" rx="5" fill="#cbd5e1" fill-opacity=".7" />
    </g>
    <g transform="translate(756 96)">
      <rect width="190" height="100" rx="24" fill="#0c1019" />
      <rect x="28" y="28" width="98" height="14" rx="7" fill="#67e8f9" />
      <rect x="28" y="56" width="72" height="10" rx="5" fill="#67e8f9" fill-opacity=".42" />
    </g>
    <g transform="translate(974 96)">
      <rect width="318" height="100" rx="24" fill="#0c1019" />
      <rect x="28" y="28" width="134" height="14" rx="7" fill="#c084fc" />
      <rect x="28" y="56" width="86" height="10" rx="5" fill="#c084fc" fill-opacity=".42" />
    </g>
  </g>
</svg>
