<svg xmlns="http://www.w3.org/2000/svg" viewBox="0 0 1600 1000" fill="none">
  <rect width="1600" height="1000" fill="#050816" />
  <circle cx="1360" cy="180" r="160" fill="#34d399" fill-opacity=".12" />
  <g transform="translate(120 120)">
    <rect width="1360" height="760" rx="42" fill="#08111f" stroke="#1e293b" />
    <rect x="44" y="44" width="540" height="320" rx="28" fill="#0f172a" stroke="#334155" />
    <rect x="624" y="44" width="692" height="180" rx="28" fill="#0f172a" stroke="#334155" />
    <rect x="624" y="264" width="692" height="460" rx="28" fill="#0f172a" stroke="#334155" />
    <rect x="44" y="404" width="540" height="320" rx="28" fill="#0f172a" stroke="#334155" />
    <polygon points="110,318 250,110 390,318" fill="#111827" stroke="#67e8f9" stroke-opacity=".2" />
    <polygon points="264,318 430,80 542,318" fill="#172554" stroke="#86efac" stroke-opacity=".18" />
    <rect x="86" y="452" width="220" height="220" rx="26" fill="#111827" stroke="#334155" />
    <rect x="330" y="452" width="212" height="220" rx="26" fill="#111827" stroke="#334155" />
    <rect x="666" y="92" width="180" height="16" rx="8" fill="#e2e8f0" />
    <rect x="666" y="126" width="260" height="14" rx="7" fill="#94a3b8" />
    <rect x="666" y="160" width="220" height="14" rx="7" fill="#94a3b8" fill-opacity=".72" />
    <rect x="666" y="312" width="270" height="18" rx="9" fill="#e2e8f0" />
    <rect x="666" y="356" width="460" height="14" rx="7" fill="#94a3b8" />
    <rect x="666" y="388" width="420" height="14" rx="7" fill="#94a3b8" fill-opacity=".72" />
    <rect x="666" y="438" width="610" height="220" rx="24" fill="#07111e" />
    <rect x="712" y="484" width="120" height="120" rx="28" fill="#67e8f9" fill-opacity=".16" />
    <rect x="864" y="500" width="160" height="14" rx="7" fill="#e2e8f0" />
    <rect x="864" y="534" width="200" height="12" rx="6" fill="#94a3b8" />
    <rect x="864" y="562" width="180" height="12" rx="6" fill="#94a3b8" fill-opacity=".72" />
  </g>
</svg>
